<svg xmlns="http://www.w3.org/2000/svg" viewBox="0 0 43.76 35.56"><g id="Layer_2" data-name="Layer 2"><g id="Layer_1-2" data-name="Layer 1"><path d="M43.76,4.21A18.79,18.79,0,0,1,38.6,5.63a8.93,8.93,0,0,0,3.94-5,18,18,0,0,1-5.69,2.17A9,9,0,0,0,21.33,9a9.08,9.08,0,0,0,.21,2A25.38,25.38,0,0,1,3.05,1.64a9,9,0,0,0,2.75,12,8.88,8.88,0,0,1-4-1.11v.1a9,9,0,0,0,7.19,8.82,9,9,0,0,1-2.35.29,7.91,7.91,0,0,1-1.7-.15,9.06,9.06,0,0,0,8.38,6.25A18,18,0,0,1,2.15,31.66,16.89,16.89,0,0,1,0,31.53a25.18,25.18,0,0,0,13.76,4C30.27,35.56,39.3,21.88,39.3,10c0-.4,0-.78,0-1.16A17.93,17.93,0,0,0,43.76,4.21Z"/></g></g></svg>