<svg xmlns="http://www.w3.org/2000/svg" viewBox="0 0 36.31 36.31"><g id="Layer_2" data-name="Layer 2"><g id="Layer_1-2" data-name="Layer 1"><path d="M26.48,0H9.83A9.84,9.84,0,0,0,0,9.83V26.48a9.84,9.84,0,0,0,9.83,9.83H26.48a9.84,9.84,0,0,0,9.83-9.83V9.83A9.84,9.84,0,0,0,26.48,0ZM18.16,28.08a9.93,9.93,0,1,1,9.92-9.92A9.93,9.93,0,0,1,18.16,28.08ZM28.32,10.57a2.94,2.94,0,1,1,2.94-2.94A2.94,2.94,0,0,1,28.32,10.57Z"/><path d="M18.16,10.36a7.8,7.8,0,1,0,7.8,7.8A7.8,7.8,0,0,0,18.16,10.36Z"/><path d="M28.32,6.83a.81.81,0,1,0,.81.8A.8.8,0,0,0,28.32,6.83Z"/></g></g></svg>