<svg xmlns="http://www.w3.org/2000/svg" viewBox="0 0 116.18 130.62"><defs><style>.cls-1{fill:#fff;}</style></defs><g id="Layer_2" data-name="Layer 2"><g id="Layer_1-2" data-name="Layer 1"><path class="cls-1" d="M20.06,57a4.15,4.15,0,0,0,5.52,0,88.6,88.6,0,0,0,9.86-10.63c6.76-8.63,10.21-16.51,10.21-23.43A22.81,22.81,0,1,0,0,22.94c0,6.92,3.44,14.8,10.21,23.43A90.22,90.22,0,0,0,20.06,57ZM22.81,8.27A14.6,14.6,0,0,1,37.33,22.91c0,8.64-8.87,19.47-14.52,25.23C17.16,42.38,8.29,31.57,8.29,22.91A14.62,14.62,0,0,1,22.81,8.27Z"/><circle class="cls-1" cx="22.81" cy="22.79" r="6.22"/><path class="cls-1" d="M116.18,124.4a6.23,6.23,0,0,1-10.86,4.15H18.66a18.67,18.67,0,0,1,0-37.33H60.27a10.24,10.24,0,0,0,0-20.48H27.45a6.22,6.22,0,1,1,0-8.29H60.27a18.53,18.53,0,0,1,0,37.06H18.66a10.37,10.37,0,0,0,0,20.74h86.63a6.25,6.25,0,0,1,10.89,4.15Z"/></g></g></svg>