<svg xmlns="http://www.w3.org/2000/svg" viewBox="0 0 117.98 130.62"><defs><style>.cls-1{fill:#fff;}</style></defs><g id="Layer_2" data-name="Layer 2"><g id="Layer_1-2" data-name="Layer 1"><path class="cls-1" d="M113.77,21.07A4.22,4.22,0,0,0,118,16.85V4.21A4.22,4.22,0,0,0,113.77,0H4.21A4.22,4.22,0,0,0,0,4.21V16.85a4.22,4.22,0,0,0,4.21,4.22H6.32V88.49H4.21A4.22,4.22,0,0,0,0,92.7v8.43a4.22,4.22,0,0,0,4.21,4.21H56.88v8.73a8.43,8.43,0,1,0,4.22,0v-8.73h52.67a4.22,4.22,0,0,0,4.21-4.21V92.7a4.22,4.22,0,0,0-4.21-4.21h-2.11V21.07ZM63.2,122.2A4.21,4.21,0,1,1,59,118,4.22,4.22,0,0,1,63.2,122.2Zm50.57-29.5v8.43H4.21V92.7ZM10.53,88.49V21.07h96.92V88.49ZM4.21,16.85V4.21H113.77V16.85Z"/><path class="cls-1" d="M33.71,25.28A16.86,16.86,0,1,0,50.56,42.14,16.88,16.88,0,0,0,33.71,25.28ZM21.07,42.14a12.64,12.64,0,0,1,12-12.61,16.81,16.81,0,0,0,0,25.22A12.65,12.65,0,0,1,21.07,42.14ZM39,53.62a12.62,12.62,0,0,1,0-23,12.62,12.62,0,0,1,0,23Z"/><rect class="cls-1" x="84.27" y="65.31" width="4.21" height="4.21"/><rect class="cls-1" x="82.17" y="25.28" width="21.07" height="4.21"/><rect class="cls-1" x="65.31" y="33.71" width="37.92" height="4.21"/><rect class="cls-1" x="99.02" y="42.14" width="4.21" height="4.21"/><rect class="cls-1" x="65.31" y="42.14" width="29.5" height="4.21"/><rect class="cls-1" x="14.75" y="63.2" width="44.24" height="4.21"/><rect class="cls-1" x="23.17" y="71.63" width="35.82" height="4.21"/><rect class="cls-1" x="14.75" y="71.63" width="4.21" height="4.21"/><rect class="cls-1" x="54.78" y="80.06" width="4.21" height="4.21"/><rect class="cls-1" x="14.75" y="80.06" width="35.82" height="4.21"/><rect class="cls-1" x="12.64" y="8.43" width="4.21" height="4.21"/><rect class="cls-1" x="25.28" y="8.43" width="4.21" height="4.21"/><rect class="cls-1" x="37.92" y="8.43" width="42.14" height="4.21"/><path class="cls-1" d="M97.25,67.42a27.9,27.9,0,0,0,2.55-4.36c2.29-5,1.21-7.65-.1-9s-3.93-2.39-9-.1a28.14,28.14,0,0,0-4.36,2.54A28.14,28.14,0,0,0,82,54c-5-2.29-7.65-1.21-9,.1s-2.39,3.92-.1,9a28.24,28.24,0,0,0,2.55,4.36A29.5,29.5,0,0,0,73,71.77c-2.29,5-1.21,7.66.1,9a5.12,5.12,0,0,0,3.78,1.43A12.68,12.68,0,0,0,82,80.84a28.24,28.24,0,0,0,4.36-2.55,28.24,28.24,0,0,0,4.36,2.55,12.68,12.68,0,0,0,5.17,1.33,5.13,5.13,0,0,0,3.79-1.43c1.31-1.31,2.39-3.93.1-9A28.64,28.64,0,0,0,97.25,67.42ZM76,57.08a1.24,1.24,0,0,1,.83-.2,8.79,8.79,0,0,1,3.41.95,21.78,21.78,0,0,1,2.58,1.43c-.81.7-1.62,1.45-2.4,2.23s-1.54,1.6-2.24,2.41a23.31,23.31,0,0,1-1.43-2.58C75.52,58.51,75.83,57.28,76,57.08ZM80.28,77c-2.81,1.28-4,1-4.24.76s-.52-1.44.75-4.24a22.54,22.54,0,0,1,1.43-2.59c.7.82,1.45,1.62,2.24,2.41s1.59,1.53,2.4,2.24A23.16,23.16,0,0,1,80.28,77Zm6.1-4c-1-.82-2-1.69-2.95-2.65s-1.83-2-2.65-3c.82-1,1.69-2,2.65-3s2-1.83,2.95-2.65c1,.82,2,1.69,3,2.65s1.83,2,2.65,3c-.82,1-1.69,2-2.65,3S87.37,72.2,86.38,73Zm10.34,4.74c-.21.21-1.43.52-4.24-.75a23.31,23.31,0,0,1-2.58-1.43c.81-.7,1.62-1.45,2.41-2.24s1.53-1.59,2.23-2.4A23.31,23.31,0,0,1,96,73.52C97.24,76.33,96.93,77.55,96.72,77.76ZM96,61.32a21.78,21.78,0,0,1-1.43,2.58c-.7-.81-1.45-1.62-2.23-2.41S90.71,60,89.9,59.25a23.16,23.16,0,0,1,2.58-1.42,8.79,8.79,0,0,1,3.41-.95,1.24,1.24,0,0,1,.83.2C96.93,57.29,97.24,58.51,96,61.32Z"/></g></g></svg>