<svg xmlns="http://www.w3.org/2000/svg" viewBox="0 0 136.84 130.62"><defs><style>.cls-1{fill:#fff;}</style></defs><g id="Layer_2" data-name="Layer 2"><g id="Layer_1-2" data-name="Layer 1"><path class="cls-1" d="M83.32,0H48.77A6.54,6.54,0,0,0,44,2.19a8,8,0,0,0-2,5.34,8.07,8.07,0,0,0,2,5.34,6.37,6.37,0,0,0,4.66,2.19v96.2c0,10.64,7.85,19.28,17.5,19.28a16.56,16.56,0,0,0,12.35-5.66,20.18,20.18,0,0,0,5.14-13.62V15.06a6.54,6.54,0,0,0,4.58-2.19,8,8,0,0,0,2-5.34C90.14,3.39,87.07,0,83.32,0ZM77.54,33.75h0V46.1h0v65.16a13.25,13.25,0,0,1-3.34,8.92,10.68,10.68,0,0,1-16.18,0,13.33,13.33,0,0,1-3.35-8.92V46.1h0V30.56h0V15.06H77.58ZM83.32,8.41H48.77A.85.85,0,0,1,48,7.53a.91.91,0,0,1,.24-.64.77.77,0,0,1,.55-.24H83.32a.88.88,0,0,1,0,1.76Z"/><path class="cls-1" d="M66.07,123.89h0a11.44,11.44,0,0,1-11.44-11.44h0A11.44,11.44,0,0,1,66.07,101h0A11.43,11.43,0,0,1,77.5,112.45h0A11.41,11.41,0,0,1,66.07,123.89Z"/><rect class="cls-1" x="54.63" y="90.85" width="22.91" height="21.8"/><path class="cls-1" d="M30.84,33.15H5.06a4.89,4.89,0,0,0-3.59,1.64,6.14,6.14,0,0,0,0,8,4.81,4.81,0,0,0,3.47,1.63v71.77c0,7.93,5.86,14.38,13.07,14.38a12.46,12.46,0,0,0,9.25-4.22,15.17,15.17,0,0,0,3.82-10.16V44.39a4.94,4.94,0,0,0,3.43-1.63,6,6,0,0,0,1.47-4C35.94,35.7,33.63,33.15,30.84,33.15Zm-4.3,25.19h0v9.2h0v48.62A9.73,9.73,0,0,1,24,122.81,8.06,8.06,0,0,1,18,125.56a8.27,8.27,0,0,1-6.06-2.75,9.8,9.8,0,0,1-2.51-6.65V67.54h0V56h0V44.39H26.5Zm4.3-18.89H5.06a.62.62,0,0,1-.6-.64.86.86,0,0,1,.16-.48.57.57,0,0,1,.44-.2H30.84a.62.62,0,0,1,.6.64A.66.66,0,0,1,30.84,39.45Z"/><path class="cls-1" d="M20,125.6H15.9a6.5,6.5,0,0,1-6.5-6.49V115a6.5,6.5,0,0,1,6.5-6.49H20a6.5,6.5,0,0,1,6.5,6.49v4.15A6.5,6.5,0,0,1,20,125.6Z"/><rect class="cls-1" x="9.44" y="100.94" width="17.09" height="16.26"/><path class="cls-1" d="M131,20.48H101.89a5.44,5.44,0,0,0-4.06,1.87,6.88,6.88,0,0,0,0,9,5.43,5.43,0,0,0,3.94,1.87v81.13c0,9,6.62,16.26,14.75,16.26A14.09,14.09,0,0,0,127,125.84a17.13,17.13,0,0,0,4.34-11.52V33.19a5.53,5.53,0,0,0,3.87-1.87,6.71,6.71,0,0,0,1.67-4.5C136.8,23.31,134.21,20.48,131,20.48Zm-4.86,28.45h0v10.4h0v55a11.16,11.16,0,0,1-2.83,7.54,9.13,9.13,0,0,1-13.71,0,11.16,11.16,0,0,1-2.83-7.54V59.33h0V46.22h0V33.15h19.33ZM131,27.54H101.89a.72.72,0,0,1-.68-.76.76.76,0,0,1,.2-.52.66.66,0,0,1,.48-.2H131a.72.72,0,0,1,.68.76A.68.68,0,0,1,131,27.54Z"/><path class="cls-1" d="M116.48,124.92h0a9.65,9.65,0,0,1-9.65-9.64h0a9.65,9.65,0,0,1,9.65-9.64h0a9.65,9.65,0,0,1,9.64,9.64h0A9.59,9.59,0,0,1,116.48,124.92Z"/><rect class="cls-1" x="106.83" y="97.07" width="19.33" height="18.41"/></g></g></svg>