<svg xmlns="http://www.w3.org/2000/svg" viewBox="0 0 130.62 130.62"><defs><style>.cls-1{fill:#fff;}</style></defs><g id="Layer_2" data-name="Layer 2"><g id="Layer_1-2" data-name="Layer 1"><path class="cls-1" d="M84.86,63.6a2,2,0,0,0,2.82,0l42.14-42.14a2,2,0,0,0,0-2.82L111.76.58a2,2,0,0,0-2.82,0L66.8,42.72a2,2,0,0,0,0,2.82l1.6,1.6-4.71,4.7-6.2-6.21,6.11-6.11a2,2,0,0,0,0-2.82L39.52,12.62a2,2,0,0,0-2.82,0L12.62,36.7a2,2,0,0,0,0,2.82L36.7,63.6a2,2,0,0,0,2.82,0l6.11-6.11,6.21,6.21-4.7,4.7-1.6-1.6a2,2,0,0,0-2.82,0L.58,108.94a2,2,0,0,0,0,2.82l18.06,18.06a2,2,0,0,0,2.82,0L63.6,87.68a2,2,0,0,0,0-2.82L62,83.26l4.7-4.7,5.56,5.55a29.65,29.65,0,0,0-1.5,25.21A2,2,0,0,0,74,110L85,99l17.18,5.73a2,2,0,0,0,2.52-2.53L99,85l11-11a2,2,0,0,0-.67-3.26,29.65,29.65,0,0,0-25.21,1.5L78.56,66.7l4.7-4.7Zm1.41-4.23-1.6-1.6h0l-4.61-4.61,7.72-7.71,6.2,6.2ZM96.81,48.83,90.6,42.62l7.71-7.71,6.21,6.21ZM107.34,38.3l-6.21-6.21,7.72-7.71,6.21,6.2Zm18.25-18.25-7.71,7.71-6.21-6.21,7.71-7.71ZM110.35,4.81,116.56,11l-7.71,7.71-6.21-6.21ZM99.82,15.34l6.2,6.21-7.71,7.72L92.1,23.06ZM89.28,25.88l6.21,6.21L87.78,39.8l-6.21-6.21ZM78.75,36.42l6.2,6.2-7.71,7.72-4.61-4.61h0L71,44.13ZM24.38,45.63,36.27,33.74a2,2,0,0,0-2.82-2.82L21.55,42.81l-4.7-4.7L38.11,16.85l4.7,4.7L39.7,24.67a2,2,0,0,0,2.82,2.82l3.11-3.12,6.21,6.21L30.58,51.84ZM38.11,59.37l-4.7-4.71L54.66,33.41l4.71,4.7Zm6,11.66,6.21,6.21L42.62,85l-6.2-6.2ZM33.59,81.57l6.21,6.21-7.71,7.71-6.21-6.21ZM23.06,92.1l6.21,6.21L21.55,106l-6.2-6.2ZM4.81,110.35l7.71-7.71,6.21,6.21L11,116.56Zm15.24,15.24-6.21-6.21,7.71-7.71,6.21,6.21Zm10.53-10.53-6.2-6.21,7.71-7.72,6.21,6.21Zm10.54-10.54-6.21-6.21,7.71-7.71,6.21,6.21ZM51.65,94l-6.2-6.2,7.71-7.72,6.21,6.21Zm7.53-13.54-4.61-4.61h0L50,71.22l4.7-4.7,9.22,9.22ZM99.67,99.67,88.18,95.84l7.66-7.66Zm-1.36-27a25.46,25.46,0,0,1,6.58.86l-31.4,31.4A25.7,25.7,0,0,1,98.31,72.63ZM80.67,74.46a29.18,29.18,0,0,0-6.21,6.21l-26-26,6.2-6.2ZM75.74,63.88l-9.22-9.22,4.7-4.7,9.22,9.22Z"/><path class="cls-1" d="M128.63,105.35a2,2,0,0,0-2,2,19.29,19.29,0,0,1-19.29,19.29,2,2,0,0,0,0,4,23.28,23.28,0,0,0,23.28-23.28A2,2,0,0,0,128.63,105.35Z"/><path class="cls-1" d="M120.11,105.35a2,2,0,0,0-2,2,10.79,10.79,0,0,1-10.78,10.78,2,2,0,0,0,0,4,14.78,14.78,0,0,0,14.77-14.77A2,2,0,0,0,120.11,105.35Z"/><path class="cls-1" d="M111.6,105.35a2,2,0,0,0-2,2,2.25,2.25,0,0,1-2.26,2.26,2,2,0,0,0,0,4,6.25,6.25,0,0,0,6.25-6.25A2,2,0,0,0,111.6,105.35Z"/></g></g></svg>